<?xml version="1.0" encoding="UTF-8" standalone="no"?>
<!-- Created with Inkscape (http://www.inkscape.org/) -->

<svg
   xmlns:dc="http://purl.org/dc/elements/1.1/"
   xmlns:cc="http://creativecommons.org/ns#"
   xmlns:rdf="http://www.w3.org/1999/02/22-rdf-syntax-ns#"
   xmlns:svg="http://www.w3.org/2000/svg"
   xmlns="http://www.w3.org/2000/svg"
   xmlns:sodipodi="http://sodipodi.sourceforge.net/DTD/sodipodi-0.dtd"
   xmlns:inkscape="http://www.inkscape.org/namespaces/inkscape"
   width="210mm"
   height="297mm"
   id="svg2"
   version="1.1"
   inkscape:version="0.47pre2 r22153"
   sodipodi:docname="Neues Dokument 1">
  <defs
     id="defs4">
    <inkscape:perspective
       sodipodi:type="inkscape:persp3d"
       inkscape:vp_x="0 : 526.18109 : 1"
       inkscape:vp_y="0 : 1000 : 0"
       inkscape:vp_z="744.09448 : 526.18109 : 1"
       inkscape:persp3d-origin="372.04724 : 350.78739 : 1"
       id="perspective10" />
  </defs>
  <sodipodi:namedview
     id="base"
     pagecolor="#ffffff"
     bordercolor="#666666"
     borderopacity="1.0"
     inkscape:pageopacity="0.0"
     inkscape:pageshadow="2"
     inkscape:zoom="2"
     inkscape:cx="226.92374"
     inkscape:cy="206.36556"
     inkscape:document-units="px"
     inkscape:current-layer="layer1"
     showgrid="false"
     inkscape:window-width="1434"
     inkscape:window-height="785"
     inkscape:window-x="1920"
     inkscape:window-y="22"
     inkscape:window-maximized="0" />
  <metadata
     id="metadata7">
    <rdf:RDF>
      <cc:Work
         rdf:about="">
        <dc:format>image/svg+xml</dc:format>
        <dc:type
           rdf:resource="http://purl.org/dc/dcmitype/StillImage" />
        <dc:title></dc:title>
      </cc:Work>
    </rdf:RDF>
  </metadata>
  <g
     inkscape:label="Ebene 1"
     inkscape:groupmode="layer"
     id="layer1">
    <rect
       style="fill:#333333;fill-opacity:1;fill-rule:evenodd;stroke:none"
       id="rect3594"
       width="100.98779"
       height="15.774618"
       x="186.59871"
       y="788.72919" />
    <rect
       style="fill:#daffc6;fill-opacity:1;fill-rule:evenodd;stroke:none"
       id="rect2820"
       width="83.245117"
       height="12.712306"
       x="196.33514"
       y="790.2572" />
    <text
       xml:space="preserve"
       style="font-size:10.68217182px;font-style:normal;font-weight:normal;fill:#000000;fill-opacity:1;stroke:none;font-family:Bitstream Vera Sans"
       x="202.03375"
       y="800.33942"
       id="text2816"><tspan
         sodipodi:role="line"
         id="tspan2818"
         x="202.03375"
         y="800.33942">Mein Konzept</tspan></text>
    <text
       xml:space="preserve"
       style="font-size:10.68217182px;font-style:normal;font-weight:normal;fill:#ffffff;fill-opacity:1;stroke:none;font-family:Bitstream Vera Sans"
       x="187.75786"
       y="800.69287"
       id="text3602"><tspan
         sodipodi:role="line"
         id="tspan3604"
         x="187.75786"
         y="800.69287">S</tspan></text>
    <path
       transform="matrix(0.68573033,0,0,0.68573033,89.222316,248.39537)"
       d="m 285.67113,796.21277 a 1.5909903,1.5909903 0 1 1 -3.18198,0 1.5909903,1.5909903 0 1 1 3.18198,0 z"
       sodipodi:ry="1.5909903"
       sodipodi:rx="1.5909903"
       sodipodi:cy="796.21277"
       sodipodi:cx="284.08014"
       id="path3618"
       style="fill:#ffffff;fill-opacity:1;fill-rule:evenodd;stroke:none"
       sodipodi:type="arc" />
    <path
       sodipodi:type="arc"
       style="fill:#ffffff;fill-opacity:1;fill-rule:evenodd;stroke:none"
       id="path3622"
       sodipodi:cx="284.08014"
       sodipodi:cy="796.21277"
       sodipodi:rx="1.5909903"
       sodipodi:ry="1.5909903"
       d="m 285.67113,796.21277 a 1.5909903,1.5909903 0 1 1 -3.18198,0 1.5909903,1.5909903 0 1 1 3.18198,0 z"
       transform="matrix(0.68573033,0,0,0.68573033,89.222316,252.50975)" />
    <rect
       style="fill:#333333;fill-opacity:1;fill-rule:evenodd;stroke:none"
       id="rect3816"
       width="100.98779"
       height="15.774618"
       x="204.98349"
       y="829.74139" />
    <rect
       style="fill:#daffc6;fill-opacity:1;fill-rule:evenodd;stroke:none"
       id="rect3818"
       width="83.245117"
       height="12.712306"
       x="214.71992"
       y="831.26941" />
    <text
       xml:space="preserve"
       style="font-size:10.68217182px;font-style:normal;font-weight:normal;fill:#000000;fill-opacity:1;stroke:none;font-family:Bitstream Vera Sans"
       x="220.41853"
       y="841.35162"
       id="text3820"><tspan
         sodipodi:role="line"
         id="tspan3822"
         x="220.41853"
         y="841.35162">Mein Konzept</tspan></text>
    <path
       transform="matrix(0.68573033,0,0,0.68573033,107.60709,289.40757)"
       d="m 285.67113,796.21277 a 1.5909903,1.5909903 0 1 1 -3.18198,0 1.5909903,1.5909903 0 1 1 3.18198,0 z"
       sodipodi:ry="1.5909903"
       sodipodi:rx="1.5909903"
       sodipodi:cy="796.21277"
       sodipodi:cx="284.08014"
       id="path3828"
       style="fill:#ffffff;fill-opacity:1;fill-rule:evenodd;stroke:none"
       sodipodi:type="arc" />
    <path
       sodipodi:type="arc"
       style="fill:#ffffff;fill-opacity:1;fill-rule:evenodd;stroke:none"
       id="path3830"
       sodipodi:cx="284.08014"
       sodipodi:cy="796.21277"
       sodipodi:rx="1.5909903"
       sodipodi:ry="1.5909903"
       d="m 285.67113,796.21277 a 1.5909903,1.5909903 0 1 1 -3.18198,0 1.5909903,1.5909903 0 1 1 3.18198,0 z"
       transform="matrix(0.68573033,0,0,0.68573033,107.60709,293.52195)" />
    <rect
       y="850.2475"
       x="217.0043"
       height="15.774618"
       width="100.98779"
       id="rect3832"
       style="fill:#333333;fill-opacity:1;fill-rule:evenodd;stroke:none" />
    <rect
       y="851.77551"
       x="226.74074"
       height="12.712306"
       width="83.245117"
       id="rect3834"
       style="fill:#daffc6;fill-opacity:1;fill-rule:evenodd;stroke:none" />
    <text
       id="text3836"
       y="861.85773"
       x="232.43935"
       style="font-size:10.68217182px;font-style:normal;font-weight:normal;fill:#000000;fill-opacity:1;stroke:none;font-family:Bitstream Vera Sans"
       xml:space="preserve"><tspan
         y="861.85773"
         x="232.43935"
         id="tspan3838"
         sodipodi:role="line">Mein Konzept</tspan></text>
    <path
       sodipodi:type="arc"
       style="fill:#ffffff;fill-opacity:1;fill-rule:evenodd;stroke:none"
       id="path3844"
       sodipodi:cx="284.08014"
       sodipodi:cy="796.21277"
       sodipodi:rx="1.5909903"
       sodipodi:ry="1.5909903"
       d="m 285.67113,796.21277 a 1.5909903,1.5909903 0 1 1 -3.18198,0 1.5909903,1.5909903 0 1 1 3.18198,0 z"
       transform="matrix(0.68573033,0,0,0.68573033,119.62791,309.91367)" />
    <path
       transform="matrix(0.68573033,0,0,0.68573033,119.62791,314.02805)"
       d="m 285.67113,796.21277 a 1.5909903,1.5909903 0 1 1 -3.18198,0 1.5909903,1.5909903 0 1 1 3.18198,0 z"
       sodipodi:ry="1.5909903"
       sodipodi:rx="1.5909903"
       sodipodi:cy="796.21277"
       sodipodi:cx="284.08014"
       id="path3846"
       style="fill:#ffffff;fill-opacity:1;fill-rule:evenodd;stroke:none"
       sodipodi:type="arc" />
    <rect
       style="fill:#333333;fill-opacity:1;fill-rule:evenodd;stroke:none"
       id="rect3848"
       width="100.98779"
       height="15.774618"
       x="217.0043"
       y="870.04651" />
    <rect
       style="fill:#daffc6;fill-opacity:1;fill-rule:evenodd;stroke:none"
       id="rect3850"
       width="83.245117"
       height="12.712306"
       x="226.74074"
       y="871.57452" />
    <text
       xml:space="preserve"
       style="font-size:10.68217182px;font-style:normal;font-weight:normal;fill:#000000;fill-opacity:1;stroke:none;font-family:Bitstream Vera Sans"
       x="232.43935"
       y="881.65674"
       id="text3852"><tspan
         sodipodi:role="line"
         id="tspan3854"
         x="232.43935"
         y="881.65674">Mein Konzept</tspan></text>
    <text
       xml:space="preserve"
       style="font-size:10.68217182px;font-style:normal;font-weight:normal;fill:#ffffff;fill-opacity:1;stroke:none;font-family:Bitstream Vera Sans"
       x="217.80991"
       y="881.83344"
       id="text3856"><tspan
         sodipodi:role="line"
         id="tspan3858"
         x="217.80991"
         y="881.83344">C</tspan></text>
    <path
       transform="matrix(0.68573033,0,0,0.68573033,119.62791,329.71266)"
       d="m 285.67113,796.21277 a 1.5909903,1.5909903 0 1 1 -3.18198,0 1.5909903,1.5909903 0 1 1 3.18198,0 z"
       sodipodi:ry="1.5909903"
       sodipodi:rx="1.5909903"
       sodipodi:cy="796.21277"
       sodipodi:cx="284.08014"
       id="path3860"
       style="fill:#ffffff;fill-opacity:1;fill-rule:evenodd;stroke:none"
       sodipodi:type="arc" />
    <path
       sodipodi:type="arc"
       style="fill:#ffffff;fill-opacity:1;fill-rule:evenodd;stroke:none"
       id="path3862"
       sodipodi:cx="284.08014"
       sodipodi:cy="796.21277"
       sodipodi:rx="1.5909903"
       sodipodi:ry="1.5909903"
       d="m 285.67113,796.21277 a 1.5909903,1.5909903 0 1 1 -3.18198,0 1.5909903,1.5909903 0 1 1 3.18198,0 z"
       transform="matrix(0.68573033,0,0,0.68573033,119.62791,333.82704)" />
    <rect
       y="889.84546"
       x="204.27638"
       height="15.774618"
       width="100.98779"
       id="rect3864"
       style="fill:#333333;fill-opacity:1;fill-rule:evenodd;stroke:none" />
    <rect
       y="891.37347"
       x="214.01282"
       height="12.712306"
       width="83.245117"
       id="rect3866"
       style="fill:#daffc6;fill-opacity:1;fill-rule:evenodd;stroke:none" />
    <text
       id="text3868"
       y="901.45569"
       x="219.71143"
       style="font-size:10.68217182px;font-style:normal;font-weight:normal;fill:#000000;fill-opacity:1;stroke:none;font-family:Bitstream Vera Sans"
       xml:space="preserve"><tspan
         y="901.45569"
         x="219.71143"
         id="tspan3870"
         sodipodi:role="line">Mein Konzept</tspan></text>
    <text
       id="text3872"
       y="901.63239"
       x="205.08199"
       style="font-size:10.68217182px;font-style:normal;font-weight:normal;fill:#ffffff;fill-opacity:1;stroke:none;font-family:Bitstream Vera Sans"
       xml:space="preserve"><tspan
         y="901.63239"
         x="205.08199"
         id="tspan3874"
         sodipodi:role="line">T</tspan></text>
    <path
       sodipodi:type="arc"
       style="fill:#ffffff;fill-opacity:1;fill-rule:evenodd;stroke:none"
       id="path3876"
       sodipodi:cx="284.08014"
       sodipodi:cy="796.21277"
       sodipodi:rx="1.5909903"
       sodipodi:ry="1.5909903"
       d="m 285.67113,796.21277 a 1.5909903,1.5909903 0 1 1 -3.18198,0 1.5909903,1.5909903 0 1 1 3.18198,0 z"
       transform="matrix(0.68573033,0,0,0.68573033,106.89999,349.51165)" />
    <path
       transform="matrix(0.68573033,0,0,0.68573033,106.89999,353.62603)"
       d="m 285.67113,796.21277 a 1.5909903,1.5909903 0 1 1 -3.18198,0 1.5909903,1.5909903 0 1 1 3.18198,0 z"
       sodipodi:ry="1.5909903"
       sodipodi:rx="1.5909903"
       sodipodi:cy="796.21277"
       sodipodi:cx="284.08014"
       id="path3878"
       style="fill:#ffffff;fill-opacity:1;fill-rule:evenodd;stroke:none"
       sodipodi:type="arc" />
    <rect
       y="768.93018"
       x="154.07179"
       height="15.774618"
       width="100.98779"
       id="rect3880"
       style="fill:#333333;fill-opacity:1;fill-rule:evenodd;stroke:none" />
    <rect
       y="770.45819"
       x="163.80823"
       height="12.712306"
       width="83.245117"
       id="rect3882"
       style="fill:#daffc6;fill-opacity:1;fill-rule:evenodd;stroke:none" />
    <text
       id="text3884"
       y="780.54041"
       x="169.50684"
       style="font-size:10.68217182px;font-style:normal;font-weight:normal;fill:#000000;fill-opacity:1;stroke:none;font-family:Bitstream Vera Sans"
       xml:space="preserve"><tspan
         y="780.54041"
         x="169.50684"
         id="tspan3886"
         sodipodi:role="line">Mein Konzept</tspan></text>
    <text
       id="text3888"
       y="780.7171"
       x="154.8774"
       style="font-size:10.68217182px;font-style:normal;font-weight:normal;fill:#ffffff;fill-opacity:1;stroke:none;font-family:Bitstream Vera Sans"
       xml:space="preserve"><tspan
         y="780.7171"
         x="154.8774"
         id="tspan3890"
         sodipodi:role="line">G</tspan></text>
    <path
       sodipodi:type="arc"
       style="fill:#ffffff;fill-opacity:1;fill-rule:evenodd;stroke:none"
       id="path3892"
       sodipodi:cx="284.08014"
       sodipodi:cy="796.21277"
       sodipodi:rx="1.5909903"
       sodipodi:ry="1.5909903"
       d="m 285.67113,796.21277 a 1.5909903,1.5909903 0 1 1 -3.18198,0 1.5909903,1.5909903 0 1 1 3.18198,0 z"
       transform="matrix(0.68573033,0,0,0.68573033,56.695404,228.59638)" />
    <path
       transform="matrix(0.68573033,0,0,0.68573033,56.695404,232.71076)"
       d="m 285.67113,796.21277 a 1.5909903,1.5909903 0 1 1 -3.18198,0 1.5909903,1.5909903 0 1 1 3.18198,0 z"
       sodipodi:ry="1.5909903"
       sodipodi:rx="1.5909903"
       sodipodi:cy="796.21277"
       sodipodi:cx="284.08014"
       id="path3894"
       style="fill:#ffffff;fill-opacity:1;fill-rule:evenodd;stroke:none"
       sodipodi:type="arc" />
    <path
       style="fill:#333333;stroke:#000000;stroke-width:0.3562288px;stroke-linecap:butt;stroke-linejoin:miter;stroke-opacity:1"
       d="m 174.71826,791.89414 0,8.57657 7.11687,-4.40418 -7.11687,-4.17239 z"
       id="path3896"
       sodipodi:nodetypes="cccc" />
    <path
       sodipodi:nodetypes="cccc"
       id="path3902"
       d="m 206.21826,872.89414 0,8.57657 7.11687,-4.40418 -7.11687,-4.17239 z"
       style="fill:#333333;stroke:#000000;stroke-width:0.3562288px;stroke-linecap:butt;stroke-linejoin:miter;stroke-opacity:1" />
    <path
       style="fill:#333333;stroke:#000000;stroke-width:0.3562288px;stroke-linecap:butt;stroke-linejoin:miter;stroke-opacity:1"
       d="m 193.21826,893.39414 0,8.57657 7.11687,-4.40418 -7.11687,-4.17239 z"
       id="path3904"
       sodipodi:nodetypes="cccc" />
    <path
       sodipodi:nodetypes="cccc"
       id="path3906"
       d="m 151.06498,773.62399 -8.57657,0 4.40418,7.11687 4.17239,-7.11687 z"
       style="fill:#333333;stroke:#000000;stroke-width:0.3562288px;stroke-linecap:butt;stroke-linejoin:miter;stroke-opacity:1" />
    <text
       xml:space="preserve"
       style="font-size:10.68217182px;font-style:normal;font-weight:normal;fill:#ffffff;fill-opacity:1;stroke:none;font-family:Bitstream Vera Sans"
       x="205.78909"
       y="841.52832"
       id="text3824"><tspan
         sodipodi:role="line"
         id="tspan3826"
         x="205.78909"
         y="841.52832">T</tspan></text>
    <rect
       y="809.23529"
       x="187.30582"
       height="58.77462"
       width="100.94363"
       id="rect3800"
       style="fill:#333333;fill-opacity:1;fill-rule:evenodd;stroke:none" />
    <rect
       y="810.76331"
       x="197.04225"
       height="12.712306"
       width="83.245117"
       id="rect3802"
       style="fill:#daffc6;fill-opacity:1;fill-rule:evenodd;stroke:none" />
    <text
       id="text3804"
       y="820.84552"
       x="202.74086"
       style="font-size:10.68217182px;font-style:normal;font-weight:normal;fill:#000000;fill-opacity:1;stroke:none;font-family:Bitstream Vera Sans"
       xml:space="preserve"><tspan
         y="820.84552"
         x="202.74086"
         id="tspan3806"
         sodipodi:role="line">Mein Konzept</tspan></text>
    <text
       id="text3808"
       y="821.02222"
       x="188.11142"
       style="font-size:10.68217182px;font-style:normal;font-weight:normal;fill:#ffffff;fill-opacity:1;stroke:none;font-family:Bitstream Vera Sans"
       xml:space="preserve"><tspan
         y="821.02222"
         x="188.11142"
         id="tspan3810"
         sodipodi:role="line">S</tspan></text>
    <path
       sodipodi:type="arc"
       style="fill:#ffffff;fill-opacity:1;fill-rule:evenodd;stroke:none"
       id="path3812"
       sodipodi:cx="284.08014"
       sodipodi:cy="796.21277"
       sodipodi:rx="1.5909903"
       sodipodi:ry="1.5909903"
       d="m 285.67113,796.21277 a 1.5909903,1.5909903 0 1 1 -3.18198,0 1.5909903,1.5909903 0 1 1 3.18198,0 z"
       transform="matrix(0.68573033,0,0,0.68573033,89.929423,268.90147)" />
    <path
       transform="matrix(0.68573033,0,0,0.68573033,89.929423,273.01585)"
       d="m 285.67113,796.21277 a 1.5909903,1.5909903 0 1 1 -3.18198,0 1.5909903,1.5909903 0 1 1 3.18198,0 z"
       sodipodi:ry="1.5909903"
       sodipodi:rx="1.5909903"
       sodipodi:cy="796.21277"
       sodipodi:cx="284.08014"
       id="path3814"
       style="fill:#ffffff;fill-opacity:1;fill-rule:evenodd;stroke:none"
       sodipodi:type="arc" />
    <path
       sodipodi:nodetypes="cccc"
       id="path3898"
       d="m 184.06498,811.62399 -8.57657,0 4.40418,7.11687 4.17239,-7.11687 z"
       style="fill:#333333;stroke:#000000;stroke-width:0.3562288px;stroke-linecap:butt;stroke-linejoin:miter;stroke-opacity:1" />
    <text
       xml:space="preserve"
       style="font-size:10.68217182px;font-style:normal;font-weight:normal;fill:#ffffff;fill-opacity:1;stroke:none;font-family:Bitstream Vera Sans"
       x="188.11142"
       y="821.02222"
       id="text3908"><tspan
         sodipodi:role="line"
         id="tspan3910"
         x="188.11142"
         y="821.02222">S</tspan></text>
    <rect
       style="fill:#999999;stroke:none"
       id="rect3924"
       width="95.75"
       height="10.75"
       x="190"
       y="829.11218" />
    <rect
       y="841.86218"
       x="189.75"
       height="10.75"
       width="95.75"
       id="rect3926"
       style="fill:#999999;stroke:none" />
    <rect
       style="fill:#999999;stroke:none"
       id="rect3928"
       width="95.75"
       height="10.75"
       x="189.5"
       y="854.11218" />
    <text
       xml:space="preserve"
       style="font-size:10.68217182px;font-style:normal;font-weight:normal;fill:#000000;fill-opacity:1;stroke:none;font-family:Bitstream Vera Sans"
       x="192.24086"
       y="838.34552"
       id="text3934"><tspan
         sodipodi:role="line"
         id="tspan3936"
         x="192.24086"
         y="838.34552">Neues Konzept</tspan></text>
    <text
       id="text3938"
       y="850.84552"
       x="191.49086"
       style="font-size:10.68217182px;font-style:normal;font-weight:normal;fill:#000000;fill-opacity:1;stroke:none;font-family:Bitstream Vera Sans"
       xml:space="preserve"><tspan
         y="850.84552"
         x="191.49086"
         id="tspan3940"
         sodipodi:role="line">Neuer Unterkno</tspan></text>
    <text
       xml:space="preserve"
       style="font-size:10.68217182px;font-style:normal;font-weight:normal;fill:#000000;fill-opacity:1;stroke:none;font-family:Bitstream Vera Sans"
       x="191.24086"
       y="863.09552"
       id="text3942"><tspan
         sodipodi:role="line"
         id="tspan3944"
         x="191.24086"
         y="863.09552">Löschen</tspan></text>
  </g>
</svg>
